<?xml version="1.0" encoding="utf-8"?>
<!-- Generator: Adobe Illustrator 27.5.0, SVG Export Plug-In . SVG Version: 6.00 Build 0)  -->
<svg version="1.1" id="Layer_1" xmlns="http://www.w3.org/2000/svg" xmlns:xlink="http://www.w3.org/1999/xlink" x="0px" y="0px"
	 viewBox="0 0 538.068 251.043" style="enable-background:new 0 0 538.068 251.043;" xml:space="preserve">
<g>
	<g>
		<g>
			<g>
				<path style="fill:#4B1E0A;" d="M466.2,99.16c-0.346-17.412-1.888-35.714-6.356-52.601
					c-3.233-12.194-16.446-16.012-27.281-18.276c-3.567-0.749-7.216-1.136-10.9-1.309c-11.616-16.006-31.484-20.436-53.039-16.352
					c-18.042,3.421-48.528,7.655-48.34,30.96c-17.188,5.084-33.708,11.518-42.92,25.524c-1.084,0.997-2.102,2.091-3.023,3.318
					c-7.029,9.354-6.606,23.03-6.469,34.054c0.198,16.47,0.941,33.087,2.947,49.439c1.531,12.525,2.193,30.588,8.112,41.878
					c5.289,10.081,15.833,12.765,26.379,14.795c17.111,3.292,35.881,2.412,53.125,0.793c18.781-1.761,37.332-7.09,55.289-12.633
					c13.161-4.061,27.442-9.338,37.896-18.582c7.599-6.722,8.408-19.972,10.408-29.142C465.732,134.019,466.542,116.511,466.2,99.16
					z"/>
				<path style="fill:#A7A9AC;" d="M455.472,50.754c-2.199-1.542-4.606-2.789-6.708-3.71c-6.591-2.902-13.553-2.532-20.495-1.869
					c-0.098-0.092-0.194-0.181-0.286-0.27c-0.056-0.091-0.096-0.147-0.138-0.208c0.036-0.051,0.087-0.097,0.118-0.148
					c0.249-0.126,0.493-0.254,0.753-0.392c0.795-0.407,1.207-1.649,0.24-2.112c-0.016-0.01-0.036-0.013-0.051-0.02
					c0.021-0.179,0.005-0.356-0.051-0.534c-0.987-3.126-2.194-5.971-3.557-8.612C438.02,33.881,450.855,37.925,455.472,50.754z"/>
				<path style="fill:#A7A9AC;" d="M372.583,15.417c10.852-2.041,20.475-1.496,30.471,3.273c9.502,4.535,14.48,11.594,19.803,19.523
					c-0.02,0.01-0.04,0.018-0.056,0.031c-0.413,0.325-0.773,0.87-1.023,1.471c-5.247-6.199-7.7-14.48-16.587-16.48
					c-8.626-1.944-21.824,0.397-29.962,3.115c-4.941,1.654-8.82,3.12-11.38,6.418c-0.107,0.005-0.219,0.056-0.271,0.173
					c-0.036,0.091-0.065,0.193-0.106,0.284c-0.901,1.292-1.629,2.84-2.143,4.785c-0.519,1.959-0.519,4.117-0.397,6.255
					c-0.244,3.201-0.102,6.413,0.493,9.393c-5.268-5.022-12.504-8.034-19.417-9.79c-6.371-1.619-11.639-0.702-17.116,0.207
					c-1.949-0.507-2.86-1.586-3.028-2.96c-0.188,0.056-0.372,0.112-0.561,0.168C325.989,21.743,356.159,18.506,372.583,15.417z"/>
				<path style="fill:#A7A9AC;" d="M279.719,71.07c5.685-6.733,14.383-10.077,23.254-15.171c0.143-0.082,0.118-0.326-0.076-0.26
					c-3.293,1.149-6.734,2.158-10.113,3.298c9.848-6.501,21.747-10.331,33.932-13.798c5.598-0.132,10.912,1.089,16.342,3.08
					c4.417,1.618,8.225,4.911,12.398,7.044c-8.673,2.079-16.999,5.178-24.002,10.84c-0.785,0.632-1.456,1.314-2.082,2.021
					c-2.702,1.878-5.125,4.087-8.087,5.619c-0.967,0.499-2.458,0.819-3.991,0.891c-0.106-0.06-0.203-0.127-0.311-0.188
					c-5.883-3.191-12.851-3.649-19.35-3.604c-5.793,0.041-13.554,3.823-19.275,2.189C278.808,72.363,279.251,71.702,279.719,71.07z"
					/>
				<path style="fill:#F1F2F2;" d="M459.09,137.239c-1.583,12.236-3.293,31.703-13.075,40.33
					c-9.532,8.413-25.051,12.622-36.874,16.323c-11.985,3.75-24.16,6.799-36.476,9.247c-14.363,2.855-29.021,3.66-43.638,3.776
					c-14.251,0.118-35.286,1.044-44.839-11.511c-6.102-8.021-5.655-24.472-7.136-33.897c-2.132-13.528-2.728-27.056-3.553-40.702
					c-0.712-11.766-1.536-23.88,0.168-35.58c0.483-3.323,1.333-6.154,2.478-8.612c0.642-1.151,1.324-2.245,2.027-3.308
					c2.478,1.277,4.468,1.069,7.323,0.926c7.976-0.397,15.467,0.132,23.157,2.56c17.778,5.624,18.369,23.677,19.229,39.47
					c1.506,27.596-0.199,57.272,5.333,84.394c0.138,0.692,1.206,0.204,1.136-0.376c-4.102-33.723-1.863-67.956-3.034-101.801
					c-0.122-3.517-0.789-6.795-1.908-9.813c0.605-9.019,2.483-17.37,11.486-22.76c6.23-3.733,13.228-6.413,20.333-8.754
					c0.036,0.005,0.071,0.018,0.107,0.02c0.437,0.046,0.809-0.129,1.084-0.406c1.191-0.385,2.376-0.784,3.573-1.155
					c-1.043-0.132-2.081-0.255-3.145-0.306c-0.01-0.056-0.02-0.112-0.041-0.168c0.209-0.112,0.432-0.214,0.651-0.32
					c4.855,1.058,10.765,3.502,14.516,6.311c2.932,2.194,5.446,6.973,9.466,5.166c0.809-0.367,1.37-1.496,0.855-2.311
					c-2.193-3.445-6.865-6.504-10.504-8.29c-2.978-1.464-6.901-2.212-10.597-2.446c5.782-1.99,12.495-2.82,17.692-4.059
					c8.763-2.091,17.716-2.85,26.618-4.087c1.303-0.183,1.888-2.504,0.295-2.661c-11.676-1.16-23.285,1.72-34.4,5.1
					c-4.565,1.384-9.717,2.662-13.793,5.328c0.143-4.921-0.458-9.771,0.169-14.693c1.186-9.324,16.718-10.444,23.798-11.614
					c10.622-1.75,19.401-2.926,26.506,6.164c2.381,3.048,3.42,6.606,6.306,9.075c0.346,0.3,0.793,0.239,1.171,0.01
					c0.122,0.488,0.428,0.886,0.941,1.14c-0.06,0.137-0.122,0.275-0.153,0.412c-0.382,0.01-0.809,0.519-0.418,0.799
					c0.189,0.132,0.347,0.275,0.524,0.407c0.081,0.214,0.188,0.423,0.331,0.616c0.33,0.453,0.824,0.718,1.353,0.893
					c0.031,0.089,0.091,0.158,0.219,0.161c0.005,0,0.005,0,0.01,0c0.092,0.084,0.189,0.168,0.276,0.26
					c0.32,0.601,0.829,1.149,1.353,1.669c1.567,2.214,2.468,4.773,2.886,7.837c-0.066,1.364,1.242,2.285,2.509,2.03
					c1.466-0.295,2.332-1.613,2.443-3.023c0.249-3.043-0.978-5.796-3.018-7.99c-0.224-0.234-0.489-0.433-0.743-0.637
					c10.185,0.489,19.447,2.451,26.857,9.543c3.008,12.689,3.431,26.43,3.985,39.332
					C461.513,109.298,460.897,123.304,459.09,137.239z"/>
				<g>
					<path style="fill:#A7A9AC;" d="M312.508,66.689c10.75-2.605,19.87-8.469,21.824-15.309c1.204-4.21,11.287,0.341,18.868,4.464
						c0.75-0.199,1.501-0.4,2.257-0.581c-4.173-2.133-7.981-5.426-12.398-7.044c-5.431-1.99-10.745-3.212-16.342-3.08
						c-12.185,3.467-24.085,7.296-33.932,13.798c3.379-1.14,6.82-2.148,10.113-3.298c0.193-0.066,0.219,0.178,0.076,0.26
						c-8.871,5.094-17.569,8.438-23.254,15.171c-0.468,0.631-0.911,1.292-1.359,1.96c5.721,1.634,13.482-2.148,19.275-2.189
						c6.499-0.045,13.467,0.413,19.35,3.604c0.108,0.061,0.204,0.127,0.311,0.188c1.4-0.066,2.743-0.346,3.71-0.774
						C311.897,71.735,305.361,68.422,312.508,66.689z"/>
				</g>
				<g>
					<path style="fill:#D1D3D4;" d="M460.912,95.256c-0.554-12.902-0.976-26.644-3.985-39.332
						c-7.41-7.092-16.672-9.054-26.857-9.543c0.254,0.204,0.519,0.403,0.743,0.637c2.04,2.194,3.268,4.947,3.018,7.99
						c-0.112,1.41-0.978,2.728-2.443,3.023c-1.267,0.254-2.575-0.666-2.509-2.03c-0.418-3.064-1.319-5.624-2.886-7.837
						c-0.524-0.521-1.033-1.069-1.353-1.669c-0.087-0.092-0.184-0.175-0.276-0.26c-0.004,0-0.004,0-0.01,0
						c-0.127-0.002-0.188-0.071-0.219-0.161c-0.529-0.175-1.023-0.44-1.353-0.893c-0.143-0.193-0.25-0.402-0.331-0.616
						c-0.178-0.132-0.336-0.274-0.524-0.407c-0.392-0.28,0.036-0.789,0.418-0.799c0.031-0.137,0.092-0.275,0.153-0.412
						c-0.514-0.254-0.82-0.652-0.941-1.14c-0.377,0.229-0.825,0.291-1.171-0.01c-2.153-1.84-3.277-4.285-4.7-6.678
						c-1.451,2.727-5.585,4.626-13.81,4.794c-20.142,0.41-28.364,3.701-28.776-5.344c-0.097-2.19,1.145-4.208,3.064-6.016
						c-6.001,1.486-11.691,4.122-12.388,9.619c-0.626,4.922-0.026,9.771-0.169,14.693c4.077-2.666,9.228-3.944,13.793-5.328
						c11.115-3.38,22.724-6.26,34.4-5.1c1.593,0.157,1.008,2.478-0.295,2.661c-8.901,1.237-17.854,1.996-26.618,4.087
						c-5.197,1.239-11.91,2.069-17.692,4.059c3.695,0.234,7.619,0.982,10.597,2.446c3.639,1.786,8.311,4.845,10.504,8.29
						c0.515,0.815-0.046,1.944-0.855,2.311c-4.02,1.807-6.535-2.972-9.466-5.166c-3.751-2.809-9.66-5.253-14.516-6.311
						c-0.219,0.106-0.443,0.208-0.651,0.32c0.021,0.056,0.031,0.112,0.041,0.168c1.064,0.05,2.102,0.173,3.145,0.306
						c-1.196,0.372-2.382,0.77-3.573,1.155c-0.275,0.277-0.647,0.452-1.084,0.406c-0.036-0.002-0.071-0.014-0.107-0.02
						c-7.104,2.341-14.103,5.021-20.333,8.754c-9.003,5.39-10.881,13.741-11.486,22.76c1.119,3.019,1.785,6.296,1.908,9.813
						c1.171,33.845-1.068,68.078,3.034,101.801c0.07,0.58-0.998,1.068-1.136,0.376c-5.532-27.122-3.827-56.798-5.333-84.394
						c-0.86-15.793-1.451-33.845-19.229-39.47c-7.69-2.428-15.182-2.957-23.157-2.56c-2.855,0.143-4.845,0.351-7.323-0.926
						c-0.703,1.063-1.385,2.157-2.027,3.308c-1.145,2.458-1.995,5.289-2.478,8.612c-1.705,11.7-0.88,23.814-0.168,35.58
						c0.825,13.646,1.42,27.173,3.553,40.702c1.481,9.425,1.034,25.876,7.136,33.897c9.553,12.555,30.588,11.629,44.839,11.511
						c14.617-0.116,29.275-0.92,43.638-3.776c12.316-2.448,24.491-5.497,36.476-9.247c11.823-3.701,27.342-7.91,36.874-16.323
						c9.782-8.627,11.492-28.094,13.075-40.33C460.897,123.304,461.513,109.298,460.912,95.256z M282.665,80.608
						c0.409-2.875,7.397-2.469,19.729-2.056c12.333,0.413,14.388,9.867-4.109,10.688C279.786,90.063,282.665,80.608,282.665,80.608z
						 M306.918,199.405c-18.5-2.055-21.789-18.497-13.156-27.541c15.622-20.145,20.144-59.194,20.144-59.194
						c2.875-16.444,8.632,10.688,9.043,43.162C323.36,188.305,325.413,201.462,306.918,199.405z M376.797,189.13
						c-2.465,12.333-36.996,22.605-39.462-15.622c-2.465-38.228-3.7-70.292-3.29-85.089c0.412-14.798,9.043-19.323,20.144-23.434
						c11.1-4.109,26.72-2.875,18.088,7.401c0,0-13.567,17.676-12.332,60.838C360.765,171.042,379.266,176.798,376.797,189.13z"/>
				</g>
			</g>
			<g>
				<path style="fill:#4B1E0A;" d="M322.711,36.772c-0.137-0.285-0.346-0.412-0.57-0.438c-2.52-3.206-11.212-1.088-13.997-0.575
					c-5.099,0.941-11.085,2.53-15.411,5.838c-0.738,0.458-1.414,0.926-1.908,1.292c-1.013,0.749-1.766,1.766-1.811,2.84
					c-2.311,4.316-0.697,11.284,1.786,14.937c3.226,4.749,12.072,4.133,16.928,3.726C322.63,63.147,328.93,49.812,322.711,36.772z"
					/>
				<path style="fill:#F1F2F2;" d="M312.644,38.508c-0.83,0.112,10.704-1.308,3.385,2.632c-4.153,2.233-9.365,4.59-14.627,5.995
					c-2.025-0.016-4.036-0.143-6.143-0.346c-0.768-0.077-2.57-0.189-3.426-0.759c0.428-0.661,0.957-1.298,1.624-1.903
					c2.982-2.727,8.698-3.369,12.51-4.387C308.165,39.15,310.394,38.808,312.644,38.508z"/>
				<path style="fill:#F1F2F2;" d="M311.407,60.933c-3.522,1.003-7.303,0.849-10.912,0.565c-5.955-0.474-11.36-7.045-9.778-12.988
					c0.067,0.02,0.138,0.02,0.204,0.035c1.466,0.733,3.446,0.779,4.901,0.718c3.639-0.154,7.053-0.031,10.55-1.242
					c0.357-0.122,0.454-0.519,0.336-0.81c1.431-0.412,2.81-0.865,4.067-1.318c1.985-0.708,8.398-2.341,10.969-5.166
					C324.655,49.517,321.097,58.179,311.407,60.933z"/>
			</g>
			<path style="fill:#4B1E0A;" d="M452.418,54.775c-7.768-1.593-16.272-0.887-24.008-1.019c-5.71-0.096-10.82-0.32-15.686,0.718
				c-0.819-0.081-1.644-0.132-2.473-0.132c-24.312,0-44.024,31.58-44.024,70.531c0,38.955,19.712,70.531,44.024,70.531
				c0.168,0,0.336-0.016,0.504-0.021c8.26,1.277,21.239,0.692,31.662-0.474c1.695,0.316,3.411,0.495,5.155,0.495
				c24.318,0,44.03-31.576,44.03-70.531C491.603,88.544,474.455,58.636,452.418,54.775z"/>
			<path style="fill:#E6E7E8;" d="M420.257,189.541c-3.608-0.235-7.395,0.152-11.146,0.386
				c-21.468-0.972-38.686-29.122-38.686-63.752c0-29.173,12.225-53.76,28.914-61.359c4.188-3.008,8.982-5.06,13.706-4.998
				c0.02-0.031,0.041-0.062,0.061-0.092c5.96,0.26,12.251,1.313,17.534,1.333c-15.905,10.632-27.092,35.779-27.092,65.115
				c0,28.253,10.371,52.606,25.346,63.869C426.074,189.805,423.22,189.733,420.257,189.541z"/>
			<path style="fill:#4B1E0A;" d="M449.175,68.017c-19.6,0-35.489,25.458-35.489,56.855c0,31.402,15.889,56.86,35.489,56.86
				c19.601,0,35.49-25.458,35.49-56.86C484.665,93.475,468.776,68.017,449.175,68.017z"/>
			<path style="fill:#4B1E0A;" d="M489.775,54.775c-7.767-1.593-16.272-0.887-24.007-1.019c-5.71-0.096-10.82-0.32-15.686,0.718
				c-0.82-0.081-1.644-0.132-2.473-0.132c-24.312,0-44.025,31.58-44.025,70.531c0,38.955,19.713,70.531,44.025,70.531
				c0.168,0,0.336-0.016,0.504-0.021c8.26,1.277,21.239,0.692,31.662-0.474c1.695,0.316,3.41,0.495,5.155,0.495
				c24.318,0,44.03-31.576,44.03-70.531C528.959,88.544,511.813,58.636,489.775,54.775z"/>
			<path style="fill:#E6E7E8;" d="M457.614,188.237c-3.608-0.234-7.395,0.153-11.146,0.387
				c-21.468-0.972-38.686-29.123-38.686-63.751c0-29.174,12.225-53.762,28.914-61.36c4.189-3.007,8.983-5.058,13.707-4.998
				c0.02-0.029,0.04-0.06,0.061-0.092c5.959,0.26,12.25,1.314,17.534,1.334c-15.905,10.633-27.091,35.78-27.091,65.116
				c0,28.252,10.372,52.606,25.346,63.868C463.432,188.502,460.577,188.43,457.614,188.237z"/>
			<path style="fill:#F1F2F2;" d="M484.93,188.68c-21.992,0-39.825-28.568-39.825-63.808c0-35.24,17.833-63.803,39.825-63.803
				c22.003,0,39.831,28.562,39.831,63.803C524.76,160.112,506.932,188.68,484.93,188.68z"/>
			<path style="fill:#4B1E0A;" d="M486.533,68.017c-19.6,0-35.489,25.458-35.489,56.855c0,31.402,15.889,56.86,35.489,56.86
				c19.6,0,35.489-25.458,35.489-56.86C522.022,93.475,506.133,68.017,486.533,68.017z"/>
			<path style="fill:#808285;" d="M486.533,176.312c-17.731,0-32.104-23.03-32.104-51.44c0-28.405,14.373-51.435,32.104-51.435
				c17.737,0,32.105,23.03,32.105,51.435C518.638,153.282,504.27,176.312,486.533,176.312z"/>
			<g style="opacity:0.5;">
				<path style="fill:#808285;" d="M486.533,73.437c-17.731,0-32.104,23.03-32.104,51.435c0,28.41,14.373,51.44,32.104,51.44
					c17.737,0,32.105-23.03,32.105-51.44C518.638,96.467,504.27,73.437,486.533,73.437z M490.894,162.855
					c-14.314,0-25.918-18.593-25.918-41.528c0-22.931,11.604-41.523,25.918-41.523c14.32,0,25.921,18.592,25.921,41.523
					C516.815,144.263,505.214,162.855,490.894,162.855z"/>
			</g>
			<g>
				<g>
					<path style="fill:#4B1E0A;" d="M310.456,92.981c-4.092-1.782-8.083-0.28-12.347-0.255c-4.24,0.031-8.413,0.545-12.653,0.479
						c-2.906-0.045-7.308-0.051-9.599,2.123c-3.771,3.578-4.998,9.751,1.491,10.855c1.033,0.179,2.071,0.214,3.115,0.179
						c0.59,0.071,1.181,0.127,1.766,0.193c-2.245,7.66-2.479,17.573-3.568,23.116c-1.506,7.634-3.395,14.872-5.746,21.743
						c-15.355,7.889-32.227,7.416-48.987,5.558c-18.388-2.041-36.771-4.205-55.165-6.219c-34.568-3.787-67.35-3.085-101.613,2.723
						c-16.754,2.839-35.581,3.445-49.613,14.149c-16.521,12.597-5.512,33.249,5.456,45.22c14.256,15.553,36.696,20.562,57.664,23.27
						c92.61,23.04,221.869-23.957,228.362-129.559c1.767-0.606,3.319-2.403,3.64-4.174C313.239,99.236,314.272,94.64,310.456,92.981
						z M238.738,200.198c-26.908,15.996-62.123,21.916-90.588,21.589c-23.768-0.27-47.598-4.077-70.668-9.553
						c-10.276-2.438-19.956-6.133-29.739-10.022c-5.405-2.147-14.927-8.112-19.33-15.161c1.095-0.438,2.112-1.431,2.164-2.728
						c0.295-7.211,53.445,7.069,58.306,8.087c25.275,5.272,51.007,7.507,76.806,6.865c23.859-0.595,48.04-4.066,70.964-10.744
						c8.311-2.423,17.075-6.326,24.19-11.97C255.061,185.398,247.824,193.286,238.738,200.198z"/>
					<path style="fill:#F15A29;" d="M143.066,234.415c-30.445,3.343-65.757,1.415-94.63-9.421
						c-15.045-5.649-27.474-16.394-33.489-31.437c-6.515-16.303,7.099-24.66,20.317-28.39c20.256-5.715,43.281-7.593,64.077-9.746
						c32.65-3.374,65.579,1.98,98.041,5.191c23.6,2.336,53.297,7.528,74.541-6.383c-2.051,5.593-4.454,10.912-7.242,15.961
						c-16.704,14.648-43.862,17.575-64.413,20.536c-27.112,3.909-54.286,3.583-81.474,0.84
						c-24.583-2.479-48.173-9.803-72.394-14.124c-6.382-1.14-17.268-2.061-20.094,4.621c-0.666-3.146-0.031-6.372,2.626-9.476
						c0.188-0.225-0.061-0.53-0.305-0.341c-12.26,9.68,0.25,26.796,9.91,32.191c26.532,14.831,58.591,19.472,88.416,22.444
						c24.669,2.463,51.231,1.303,75.045-6.789C183.13,227.583,163.042,232.221,143.066,234.415z"/>
				</g>
				<path style="fill:#FBB040;" d="M300.215,129.671c-4.28,13.554-11.772,30.039-20.653,41.327
					c-6.011,7.645-24.542,27.143-33.876,30.4c0.122-0.133,14.724-16.582,14.841-16.714c9.141-10.337,14.48-23.05,18.522-35.622
					c2.494-7.756,4.142-15.742,5.801-23.666c0.749-3.573,1.105-11.38,2.891-18.185c6.373,0.396,12.734,0.407,19.213-0.325
					C304.617,114.454,302.603,122.119,300.215,129.671z"/>
			</g>
		</g>
		<path style="fill:#A7A9AC;" d="M403.548,126.175c0-7.425,0.723-14.581,2.051-21.302c-10.958-0.072-21.916-0.087-32.874-0.054
			c-1.483,6.681-2.3,13.861-2.3,21.355c0,34.63,17.218,62.78,38.686,63.752c3.751-0.234,7.537-0.621,11.146-0.386
			c2.963,0.193,5.817,0.264,8.637,0.503C413.92,178.78,403.548,154.428,403.548,126.175z"/>
		<path style="fill:#A7A9AC;" d="M422.069,68.74c2.651-3.044,5.517-5.639,8.571-7.68c-5.284-0.021-11.575-1.074-17.534-1.333
			l-0.061,0.092c-4.724-0.062-9.518,1.99-13.706,4.998c-2.168,0.987-4.253,2.285-6.25,3.822
			C402.724,68.964,412.409,68.839,422.069,68.74z"/>
		<path style="fill:#A7A9AC;" d="M387.439,73.941c-1.735,1.952-3.381,4.098-4.901,6.457c10.504,0.002,21.01,0.051,31.512,0.137
			c1.17-2.206,2.428-4.288,3.753-6.25C407.675,74.386,397.527,74.47,387.439,73.941z"/>
		<path style="fill:#A7A9AC;" d="M440.906,124.873c0-6.818,0.628-13.394,1.755-19.627c-10.958-0.144-21.911-0.268-32.869-0.349
			c-1.293,6.285-2.01,12.993-2.01,19.977c0,34.628,17.218,62.779,38.686,63.751c3.751-0.234,7.537-0.621,11.146-0.387
			c2.962,0.193,5.817,0.265,8.637,0.504C451.278,177.478,440.906,153.124,440.906,124.873z"/>
		<path style="fill:#A7A9AC;" d="M438.798,68.694c6.443,0.066,12.887,0.163,19.33,0.252c3.008-3.708,6.316-6.814,9.869-9.189
			c-5.283-0.02-11.574-1.074-17.534-1.334l-0.061,0.092c-4.724-0.06-9.518,1.991-13.707,4.998c-2.774,1.263-5.413,3.023-7.899,5.176
			C432.136,68.669,435.473,68.659,438.798,68.694z"/>
		<path style="fill:#A7A9AC;" d="M433.658,74.226c-3.395-0.028-6.8-0.013-10.205,0.013c-1.579,1.946-3.079,4.051-4.463,6.344
			c10.504,0.096,21.004,0.219,31.508,0.361c1.13-2.274,2.353-4.432,3.65-6.469C447.318,74.386,440.488,74.282,433.658,74.226z"/>
		<path style="fill:#A7A9AC;" d="M404.864,143.182h-32.999c4.553,26.409,19.433,45.938,37.246,46.745
			c3.751-0.234,7.537-0.621,11.146-0.386c2.963,0.193,5.817,0.264,8.637,0.503C417.03,181.122,408.081,163.968,404.864,143.182z"/>
		<path style="fill:#A7A9AC;" d="M442.432,143.182h-32.98c4.81,25.749,19.498,44.648,37.017,45.442
			c3.751-0.234,7.537-0.621,11.146-0.387c2.962,0.193,5.817,0.265,8.637,0.504C454.637,180.005,445.816,163.376,442.432,143.182z"/>
		<path style="fill:#FFFFFF;" d="M507.112,116.589c2.318-0.66,4.634-1.331,6.961-1.957c-0.458-4.122-1.319-8.435-2.845-12.764
			c-6.991-19.804-19.223-16.31-13.398-9.902C497.829,91.966,506.11,98.381,507.112,116.589z"/>
		<path style="fill:#FFFFFF;" d="M506.857,127.717c-0.366,3.825-1.02,8.016-2.038,12.597l6.991,1.166c0,0,2.12-6.596,2.583-15.966
			C511.874,126.209,509.37,126.984,506.857,127.717z"/>
		<g>
			<path style="fill:#A7A9AC;" d="M403.054,18.689c-3.064-1.461-6.094-2.483-9.136-3.196c1.556,2.173,1.109,3.817-3.636,3.924
				c-14.685,0.333-32.707,4.005-33.042,16.022c-0.333,9.008-8.68,4.002-21.027,3.67c-7.177-0.194-9.466-5.235-6.293-10.407
				c-4.212,3.217-7.347,7.299-8.615,12.579c0.189-0.056,0.372-0.112,0.561-0.168c0.168,1.375,1.079,2.454,3.028,2.96
				c5.478-0.909,10.745-1.825,17.116-0.207c6.912,1.756,14.149,4.768,19.417,9.79c-0.595-2.98-0.737-6.192-0.493-9.393
				c-0.122-2.138-0.122-4.295,0.397-6.255c0.515-1.944,1.242-3.492,2.143-4.785c0.041-0.091,0.071-0.193,0.106-0.284
				c0.051-0.118,0.163-0.169,0.271-0.173c2.56-3.298,6.439-4.764,11.38-6.418c8.138-2.718,21.336-5.059,29.962-3.115
				c8.887,2,11.34,10.281,16.587,16.48c0.249-0.601,0.61-1.146,1.023-1.471c0.015-0.014,0.036-0.021,0.056-0.031
				C417.534,30.283,412.556,23.224,403.054,18.689z"/>
		</g>
		<g>
			<path style="fill:#A7A9AC;" d="M430.207,33.433c-1.629-0.242-3.273-0.425-4.911-0.554c1.363,2.641,2.569,5.486,3.557,8.612
				c0.057,0.178,0.072,0.355,0.051,0.534c0.015,0.007,0.036,0.01,0.051,0.02c0.966,0.463,0.555,1.705-0.24,2.112
				c-0.259,0.138-0.504,0.265-0.753,0.392c-0.031,0.051-0.081,0.097-0.118,0.148c0.042,0.062,0.082,0.117,0.138,0.208
				c0.091,0.089,0.188,0.178,0.286,0.27c6.942-0.664,13.904-1.033,20.495,1.869c2.102,0.921,4.509,2.168,6.708,3.71
				c-0.779-2.169-1.813-4.062-3.019-5.756c-4.318-0.695-10.535-3.323-15.118-3.82C432.889,40.696,431.006,36.783,430.207,33.433z"/>
		</g>
	</g>
	<g>
		<path style="fill:#FBB040;" d="M274.228,170.739c6.324-10.345,12.647-30.463,16.668-49.433c1.889-8.894,8.073-9.573,14.109-7.786
			c0.641-2.215,1.267-4.433,1.949-6.634c-6.479,0.732-12.841,0.722-19.213,0.325c-1.786,6.805-2.142,14.612-2.891,18.185
			c-1.659,7.924-3.308,15.91-5.801,23.666c-4.042,12.572-9.381,25.285-18.522,35.622c-0.117,0.132-14.719,16.581-14.841,16.714
			c7.192-2.51,19.824-14.646,28-23.588C272.452,176.126,272.472,173.612,274.228,170.739z"/>
	</g>
	<g>
		<path style="fill:#F15A29;" d="M26.306,182.063c2.826-6.683,13.711-5.761,20.094-4.621c24.22,4.321,47.811,11.645,72.394,14.124
			c27.188,2.743,54.361,3.069,81.474-0.84c20.551-2.961,47.709-5.888,64.413-20.536c2.789-5.049,5.191-10.368,7.242-15.961
			c-21.244,13.911-50.941,8.719-74.541,6.383c-12.849-1.27-25.769-2.871-38.717-4.141c44.986,8.523,60.963,9.126,62.108,16.566
			c1.15,7.471-20.689,17.816-77.593,11.495C87.696,178.368,27.335,172.2,52.602,161.24c-5.916,1.079-11.736,2.346-17.337,3.926
			c-13.218,3.73-26.832,12.087-20.317,28.39c6.015,15.043,18.444,25.788,33.489,31.437c28.873,10.836,64.185,12.765,94.63,9.421
			c19.977-2.194,40.064-6.831,58.932-14.322c-23.814,8.092-50.376,9.252-75.045,6.789c-29.825-2.972-61.884-7.613-88.416-22.444
			c-9.66-5.395-22.17-22.511-9.91-32.191c0.245-0.189,0.494,0.116,0.305,0.341C26.275,175.691,25.64,178.917,26.306,182.063z"/>
	</g>
	<path style="fill:#D1D3D4;" d="M312.644,38.508c-0.741,0.1-1.476,0.219-2.214,0.336c-0.442,1.746-0.598,3.496-0.483,5.234
		c2.167-0.944,4.239-1.952,6.081-2.939C323.348,37.2,311.814,38.62,312.644,38.508z"/>
	<path style="fill:#D1D3D4;" d="M301.274,40.82c-2.919,0.68-5.921,1.571-7.817,3.306c-0.667,0.606-1.196,1.242-1.624,1.903
		c0.855,0.57,2.657,0.683,3.426,0.759c2.107,0.203,4.117,0.33,6.143,0.346c0.082-0.023,0.164-0.056,0.245-0.077
		C301.274,44.99,301.131,42.905,301.274,40.82z"/>
	<path style="fill:#D1D3D4;" d="M310.198,46.091c0.771,4.442,3.033,8.779,5.871,12.787c6.1-3.852,8.058-10.955,5.676-18.152
		c-2.571,2.825-8.984,4.458-10.969,5.166C310.593,45.959,310.389,46.025,310.198,46.091z"/>
	<path style="fill:#D1D3D4;" d="M302.053,48.923c-2.041,0.224-4.097,0.25-6.229,0.339c-1.456,0.061-3.436,0.015-4.901-0.718
		c-0.066-0.015-0.137-0.015-0.204-0.035c-1.582,5.943,3.823,12.515,9.778,12.988c2.369,0.188,4.809,0.282,7.206,0.066
		C305.152,57.543,303.126,53.28,302.053,48.923z"/>
</g>
</svg>
